<?xml version="1.0" encoding="UTF-8" standalone="no"?>
<!DOCTYPE svg PUBLIC "-//W3C//DTD SVG 20010904//EN"
              "http://www.w3.org/TR/2001/REC-SVG-20010904/DTD/svg10.dtd">

<svg xmlns="http://www.w3.org/2000/svg"
     width="3in" height="3in"
     viewBox="0 0 900 900">
  <path id="outline_60"
        fill="lime" stroke="none" stroke-width="1"
        d="M 424.00,26.00
           C 424.00,26.00 872.00,485.00 872.00,485.00
             872.00,485.00 172.00,486.00 172.00,486.00
             172.00,486.00 420.00,733.00 420.00,733.00
             420.00,733.00 421.00,574.04 421.00,574.04
             421.00,574.04 648.00,575.00 648.00,575.00
             648.00,575.00 648.00,636.00 648.00,636.00
             648.00,636.00 481.00,636.00 481.00,636.00
             481.00,636.00 480.00,879.00 480.00,879.00
             480.00,879.00 25.00,426.00 25.00,426.00
             25.00,426.00 727.00,424.00 727.00,424.00
             727.00,424.00 484.00,174.00 484.00,174.00
             484.00,174.00 482.00,320.96 482.00,320.96
             482.00,320.96 264.00,320.00 264.00,320.00
             264.00,320.00 264.00,259.00 264.00,259.00
             264.00,259.00 422.00,259.00 422.00,259.00
             422.00,259.00 424.00,26.00 424.00,26.00 Z" />
</svg>
